<svg width="40" height="40" viewBox="0 0 16 16" fill="none" xmlns="http://www.w3.org/2000/svg">
<path d="M7.59643 7.30373C8.13452 7.6159 8.13452 8.38415 7.59643 8.69633L1.23279 12.3882C0.712564 12.69 0 12.3452 0 11.6919V4.30816C0 3.6549 0.712564 3.31005 1.23279 3.61186L7.59643 7.30373Z" fill="url(#paint0_linear_2509_687)"/>
<path d="M15.5964 7.30373C16.1345 7.6159 16.1345 8.38415 15.5964 8.69633L9.23279 12.3882C8.71256 12.69 8 12.3452 8 11.6919V4.30816C8 3.6549 8.71256 3.31005 9.23279 3.61186L15.5964 7.30373Z" fill="url(#paint1_linear_2509_687)"/>
<defs>
<linearGradient id="paint0_linear_2509_687" x1="8" y1="3.50146" x2="8" y2="12.4986" gradientUnits="userSpaceOnUse">
<stop offset="0.473958" stop-color="#24044A"/>
<stop offset="1" stop-color="#3AA999"/>
</linearGradient>
<linearGradient id="paint1_linear_2509_687" x1="8" y1="3.50146" x2="8" y2="12.4986" gradientUnits="userSpaceOnUse">
<stop offset="0.473958" stop-color="#24044A"/>
<stop offset="1" stop-color="#3AA999"/>
</linearGradient>
</defs>
</svg>
