<svg width="50" height="50" viewBox="0 0 16 16" fill="none" xmlns="http://www.w3.org/2000/svg">
<path d="M5.5 3.5C6.32843 3.5 7 4.17157 7 5V11C7 11.8284 6.32843 12.5 5.5 12.5C4.67157 12.5 4 11.8284 4 11V5C4 4.17157 4.67157 3.5 5.5 3.5Z" fill="url(#paint0_linear_1287_5915)"/>
<path d="M10.5 3.5C11.3284 3.5 12 4.17157 12 5V11C12 11.8284 11.3284 12.5 10.5 12.5C9.67157 12.5 9 11.8284 9 11V5C9 4.17157 9.67157 3.5 10.5 3.5Z" fill="url(#paint1_linear_1287_5915)"/>
<defs>
<linearGradient id="paint0_linear_1287_5915" x1="8" y1="3.5" x2="8" y2="12.5" gradientUnits="userSpaceOnUse">
<stop offset="0.489583" stop-color="#24044A"/>
<stop offset="0.9999" stop-color="#3ACCA9"/>
<stop offset="1" stop-opacity="0"/>
</linearGradient>
<linearGradient id="paint1_linear_1287_5915" x1="8" y1="3.5" x2="8" y2="12.5" gradientUnits="userSpaceOnUse">
<stop offset="0.489583" stop-color="#24044A"/>
<stop offset="0.9999" stop-color="#3ACCA9"/>
<stop offset="1" stop-opacity="0"/>
</linearGradient>
</defs>
</svg>
